<svg width="32" height="32" viewBox="0 0 100 100" fill="none" xmlns="http://www.w3.org/2000/svg">
  <!-- Background circle -->
  <circle cx="50" cy="50" r="48" fill="#3b82f6" opacity="0.15"/>

  <!-- Document icon -->
  <rect x="30" y="25" width="35" height="45" rx="2" fill="none" stroke="#3b82f6" stroke-width="3"/>

  <!-- Folded corner -->
  <path d="M 55 25 L 65 25 L 65 35 Z" fill="#3b82f6" opacity="0.4"/>

  <!-- Document lines -->
  <line x1="36" y1="35" x2="53" y2="35" stroke="#3b82f6" stroke-width="2" stroke-linecap="round"/>
  <line x1="36" y1="40" x2="58" y2="40" stroke="#3b82f6" stroke-width="2" stroke-linecap="round"/>
  <line x1="36" y1="45" x2="55" y2="45" stroke="#3b82f6" stroke-width="2" stroke-linecap="round"/>

  <!-- Arrow -->
  <path d="M 47.5 50 L 47.5 60 M 44 57 L 47.5 60.5 L 51 57" stroke="#3b82f6" stroke-width="2.5" stroke-linecap="round" stroke-linejoin="round"/>

  <!-- XML brackets -->
  <path d="M 36 63 L 33 66 L 36 69" stroke="#3b82f6" stroke-width="2.2" stroke-linecap="round" stroke-linejoin="round"/>
  <path d="M 59 63 L 62 66 L 59 69" stroke="#3b82f6" stroke-width="2.2" stroke-linecap="round" stroke-linejoin="round"/>
  <circle cx="47.5" cy="66" r="1.8" fill="#3b82f6"/>

  <!-- ASYCUDA badge -->
  <rect x="25" y="77" width="50" height="10" rx="5" fill="#3b82f6"/>
  <text x="50" y="84" font-family="system-ui, -apple-system, sans-serif" font-size="6.5" font-weight="700" fill="white" text-anchor="middle">ASYCUDA</text>
</svg>
